<svg width="200" height="54" viewBox="0 0 200 54" fill="none" xmlns="http://www.w3.org/2000/svg">
<path d="M24.7016 44.8673L18.2776 14.2793H12.7676C10.5885 14.2171 9.09427 14.684 8.28489 15.6802C7.72456 16.3962 7.22648 17.6258 6.79066 19.3691L0 44.8673H5.13644L7.10256 37.4417H17.8891L19.2383 44.8673H24.7016ZM11.4601 19.7426C11.6158 19.4002 11.8026 19.2134 12.0205 19.1823H14.0751L16.9085 32.7255H8.26993L11.4601 19.7426Z" fill="#EAA800"/>
<path d="M38.814 40.1499C38.814 40.5235 38.6272 40.7103 38.2536 40.7103H32.6502C32.2767 40.7103 32.0899 40.5235 32.0899 40.1499L32.0898 26.3344C32.1521 25.992 32.3389 25.8052 32.6502 25.7741L38.8139 25.8208L38.814 40.1499ZM38.8139 49.3481H27.7939V53.1025H37.1795C38.4873 53.1025 39.6246 53.1025 40.5979 53.1025C42.5471 53.1025 44.1272 51.5221 44.1272 49.5729C44.1272 48.7648 44.1272 48.0248 44.1272 47.5737L44.1353 26.0457C44.1363 23.446 42.0291 21.3381 39.4295 21.3381H33.1638C30.1753 21.3069 28.292 22.0541 27.5137 23.5794C27.0779 24.4199 26.86 25.5562 26.86 26.9881L26.8601 39.6363C26.8601 42.3757 27.8406 43.9159 29.8018 44.5385C30.5489 44.7564 31.4517 44.8654 32.5101 44.8654H34.6113C36.8838 44.8343 38.2535 44.8654 38.8139 44.8654V49.3481Z" fill="#EAA800"/>
<path d="M48.9651 44.8674V21.3381H54.7986V24.7743C55.4998 23.4355 56.1251 22.8204 57.1452 22.2466C58.1015 21.6409 59.249 21.3381 60.5879 21.3381C61.3529 21.3381 62.1817 21.4975 63.0743 21.8162L62.5447 26.8196C61.5413 26.8196 60.9531 26.8196 59.7766 26.8196C58.0871 26.8196 56.8387 27.8953 55.9461 29.011C55.1811 29.9673 54.7986 31.4974 54.7986 33.6013V44.8674H48.9651Z" fill="#EAA800"/>
<path d="M77.0571 25.8208C77.3995 25.883 77.5863 26.0543 77.6174 26.3344V39.8243C77.5551 40.1668 77.3684 40.3535 77.0571 40.3847H71.3136C70.9712 40.3224 70.7844 40.1356 70.7533 39.8243V26.3344C70.8155 26.0231 71.0023 25.8519 71.3136 25.8208H77.0571ZM65.43 38.6569C65.43 41.7077 66.5507 43.6222 68.7921 44.4004C69.7571 44.7117 70.9556 44.8674 72.3876 44.8674H75.9831C79.4385 44.8674 81.5865 43.8401 82.427 41.7855C82.7694 40.945 82.9406 39.9021 82.9406 38.6569V27.5018C82.9406 24.4511 81.8044 22.5521 79.5319 21.805C78.5669 21.4937 77.3839 21.3381 75.9831 21.3381H72.3876C68.901 21.3381 66.7375 22.3809 65.897 24.4666C65.5857 25.3071 65.43 26.3189 65.43 27.5018V38.6569Z" fill="#EAA800"/>
<path d="M96.6339 44.8675V19.9792H103.685V14.2794H84.1196V19.9792H91.1706V44.8675H96.6339Z" fill="black"/>
<path d="M111.346 44.8677V33.5675H117.23C117.572 33.5675 117.821 33.7387 117.977 34.0812C117.977 34.1434 117.993 34.1901 118.024 34.2213L121.573 44.8677H127.083L123.954 35.9957C123.425 34.5326 122.74 33.5053 121.899 32.9138C124.608 31.7931 125.977 29.6763 126.009 26.5633V21.0401C126.009 17.1489 124.187 14.9799 120.545 14.4195C119.86 14.3261 119.144 14.2795 118.397 14.2795H105.883V44.8677H111.346ZM119.751 18.9855C120.156 19.0478 120.374 19.2501 120.405 19.5926V28.2443C120.343 28.6179 120.125 28.8202 119.751 28.8514H111.346V18.9855H119.751Z" fill="black"/>
<path d="M153.462 44.8675L146.687 14.2793H141.177C138.998 14.2171 137.504 14.684 136.694 15.6802C136.134 16.3962 135.636 17.6258 135.2 19.3691L128.76 44.8675H133.896L135.671 37.7232H146.457L147.998 44.8675H153.462ZM139.869 19.7426C140.025 19.4002 140.212 19.2134 140.43 19.1823H142.484L145.477 33.0071H136.838L139.869 19.7426Z" fill="black"/>
<path d="M175.104 14.2795H182.98C185.364 14.2795 187.446 14.4907 189.227 14.9132C191.007 15.3055 192.667 16.075 194.206 17.2217C196.047 18.6098 197.465 20.3601 198.461 22.4725C199.487 24.5849 200 27.2894 200 29.7941C200 35.0751 197.978 39.1339 193.934 41.9705C192.305 43.1172 190.645 43.8867 188.955 44.279C187.265 44.6713 185.243 44.8675 182.89 44.8675H175.104V14.2795ZM180.989 19.3492V39.7977H182.799C185.877 39.7977 188.337 39.1339 190.177 37.8061C191.354 36.9611 192.275 35.8295 192.939 34.4112C193.603 32.9627 193.934 31.4237 193.934 29.7941C193.934 28.1947 193.603 26.2899 192.939 24.8716C192.305 23.4231 191.4 22.2462 190.223 21.3409C188.442 20.0131 185.968 19.3492 182.799 19.3492H180.989Z" fill="black"/>
<path fill-rule="evenodd" clip-rule="evenodd" d="M153.774 28.8679C154.093 29.7082 155.432 31.8321 158.237 33.6063C161.743 35.8239 161.61 42.0183 160.387 44.1482C158.859 43.9204 155.464 42.0636 154.111 36.4594C152.757 30.8553 153.322 29.0634 153.774 28.8679ZM155.936 34.6221C156.108 35.0032 156.789 35.9519 158.141 36.6973C159.83 37.6289 159.941 40.5084 159.433 41.5314C158.718 41.4683 157.09 40.7011 156.305 38.1371C155.52 35.5731 155.732 34.7254 155.936 34.6221Z" fill="#EAA800"/>
<path fill-rule="evenodd" clip-rule="evenodd" d="M171.587 28.8679C171.268 29.7082 169.929 31.8321 167.124 33.6063C163.618 35.8239 163.751 42.0183 164.974 44.1482C166.502 43.9204 169.897 42.0636 171.25 36.4594C172.604 30.8553 172.039 29.0634 171.587 28.8679ZM169.425 34.6221C169.253 35.0032 168.572 35.9519 167.22 36.6973C165.531 37.6289 165.419 40.5084 165.928 41.5314C166.643 41.4683 168.271 40.7011 169.056 38.1371C169.841 35.5731 169.629 34.7254 169.425 34.6221Z" fill="#EAA800"/>
<path fill-rule="evenodd" clip-rule="evenodd" d="M158.366 26.2986C157.715 26.0178 157.126 25.6466 156.603 25.2394C155.362 20.1127 154.519 17.6758 153.27 15.1164C153.545 16.0676 153.813 16.9224 154.065 17.7237L154.065 17.7237C154.787 20.0204 155.371 21.878 155.561 24.3062C154.663 23.3893 154.085 22.4906 153.882 22.136C153.539 22.3532 153.071 23.6379 154.977 27.9929C156.086 30.526 157.48 31.6625 158.784 32.7262C159.69 33.4644 160.552 34.1676 161.246 35.2782C161.754 32.5674 161.506 27.6548 158.366 26.2986ZM156.588 27.028C156.765 27.2785 157.389 27.8662 158.467 28.2132C159.815 28.6471 160.299 30.7057 160.077 31.5139C159.553 31.569 158.272 31.2449 157.347 29.5082C156.421 27.7715 156.455 27.1311 156.588 27.028Z" fill="#EAA800"/>
<path fill-rule="evenodd" clip-rule="evenodd" d="M166.977 26.2986C167.628 26.0178 168.217 25.6466 168.74 25.2395C169.981 20.1127 170.824 17.6758 172.073 15.1164C171.798 16.0676 171.529 16.9224 171.278 17.7237L171.278 17.7237C170.556 20.0204 169.972 21.878 169.782 24.3062C170.68 23.3893 171.258 22.4906 171.461 22.136C171.803 22.3532 172.272 23.6379 170.366 27.9929C169.257 30.526 167.863 31.6625 166.559 32.7262C165.653 33.4644 164.791 34.1676 164.097 35.2782C163.589 32.5674 163.837 27.6548 166.977 26.2986ZM168.755 27.028C168.578 27.2785 167.954 27.8662 166.876 28.2132C165.528 28.6471 165.044 30.7057 165.266 31.5139C165.79 31.569 167.071 31.2449 167.996 29.5082C168.922 27.7715 168.888 27.1311 168.755 27.028Z" fill="#EAA800"/>
<path fill-rule="evenodd" clip-rule="evenodd" d="M169.295 10.3426C168.261 12.476 167.402 14.2488 166.799 16.4588C168.068 15.0018 168.795 14.7263 169.044 14.8357C168.726 15.4777 168.213 17.4119 168.698 20.0122C169.305 23.2625 165.303 26.7281 163.396 27.1697C162.7 26.1538 162.256 22.9809 164.794 19.1506C164.882 19.0186 164.968 18.8903 165.052 18.7658C167.389 12.9337 168.743 10.3035 170.595 7.59953C170.138 8.6027 169.703 9.5007 169.295 10.3425L169.295 10.3426L169.295 10.3426ZM167.528 18.5339C167.362 18.8745 166.901 20.3184 167.041 21.6422C167.217 23.297 165.444 24.7753 164.558 25.0625C164.272 24.5611 164.002 23.3728 165.283 21.3209C166.564 19.2689 167.369 18.4639 167.528 18.5339Z" fill="#EAA800"/>
<path fill-rule="evenodd" clip-rule="evenodd" d="M155.919 10.4555C156.952 12.589 157.811 14.3618 158.414 16.5717C157.145 15.1147 156.418 14.8393 156.169 14.9486C156.487 15.5907 157.001 17.5248 156.515 20.1251C155.908 23.3755 159.91 26.8411 161.817 27.2827C162.513 26.2667 162.957 23.0938 160.419 19.2635C160.332 19.1315 160.246 19.0033 160.161 18.8787C157.824 13.0466 156.471 10.4164 154.618 7.71247C155.076 8.71565 155.511 9.61365 155.919 10.4555L155.919 10.4555ZM157.685 18.6468C157.851 18.9874 158.313 20.4313 158.172 21.7552C157.996 23.41 159.769 24.8883 160.655 25.1754C160.941 24.674 161.211 23.4858 159.931 21.4338C158.65 19.3818 157.845 18.5769 157.685 18.6468Z" fill="#EAA800"/>
<path d="M163.019 36.2264L163.956 43.4089C164.059 44.2022 163.441 44.9057 162.641 44.9057C161.841 44.9057 161.224 44.2022 161.327 43.4089L162.264 36.2264L162.641 26.7703L163.019 36.2264Z" fill="#EAA800"/>
<path fill-rule="evenodd" clip-rule="evenodd" d="M163.112 3.03434C163.178 4.80386 163.236 6.34994 163.121 7.96342C162.758 7.30504 162.455 7.08315 162.278 7.0881C162.331 7.80245 162.079 9.78779 160.651 12.0143C160.534 12.1962 160.434 12.3851 160.35 12.5797C158.808 8.91987 157.672 6.8248 156.226 4.68163C156.677 5.68801 157.105 6.58906 157.507 7.43377C158.563 9.65278 159.434 11.483 160.023 13.8122C159.703 16.4137 161.364 19.4484 162.649 20.3531C163.599 19.7249 165.232 17.5533 164.753 13.6697C165.342 11.4078 166.198 9.60732 167.233 7.43377L167.233 7.43377C167.634 6.58906 168.063 5.68801 168.513 4.68163C167.106 6.76805 165.992 8.8089 164.511 12.2923C164.236 10.9997 163.954 10.0077 163.684 9.25437C163.732 5.05914 163.52 2.61813 163.025 0C163.04 1.10238 163.078 2.09952 163.112 3.03431L163.112 3.03434ZM162.514 13.1335C162.533 13.401 162.439 14.1442 161.904 14.9777C161.236 16.0196 162.053 17.6777 162.653 18.0995C163.037 17.8451 163.721 16.9149 163.38 15.2288C163.039 13.5427 162.66 13.1294 162.514 13.1335Z" fill="#EAA800"/>
</svg>
