<svg width="36" height="36" viewBox="0 0 36 36" fill="none" xmlns="http://www.w3.org/2000/svg">
<path d="M18.0001 0.074707C8.05903 0.074707 0 8.13373 0 18.0748C0 26.9908 6.48939 34.3747 14.998 35.8046V21.8301H10.6559V16.8013H14.998V13.0932C14.998 8.79079 17.6258 6.44621 21.4645 6.44621C23.3029 6.44621 24.8829 6.58321 25.3415 6.64355V11.1407L22.6792 11.142C20.592 11.142 20.1896 12.1336 20.1896 13.5892V16.7987H25.1697L24.5202 21.8275H20.1896V35.9248C29.0955 34.8409 36 27.2689 36 18.0697C36 8.13373 27.941 0.074707 18.0001 0.074707Z" fill="#221D1D"/>
</svg>
