<svg width="33" height="42" viewBox="0 0 33 42" fill="none" xmlns="http://www.w3.org/2000/svg">
<path fill-rule="evenodd" clip-rule="evenodd" d="M13.3955 38.341C8.02464 31.952 0.373004 22.8497 0.0341299 16.75C-0.46587 7.75 4.51184 0 16.023 0C26.0006 0 32.0341 4.99251 32.0341 16.75C32.0341 24.9351 24.2661 32.944 18.8209 38.5581C17.7798 39.6314 16.8237 40.6172 16.023 41.5C15.2589 40.5576 14.3643 39.4935 13.3955 38.341ZM16 23C20.4183 23 24 19.4183 24 15C24 10.5817 20.4183 7 16 7C11.5818 7 8.00005 10.5817 8.00005 15C8.00005 19.4183 11.5818 23 16 23Z" fill="white"/>
</svg>
