<svg width="820" height="348" viewBox="0 0 820 348" fill="none" xmlns="http://www.w3.org/2000/svg">
<path opacity="0.4" d="M383.588 94.5692C383.588 86.916 384.452 80.8878 386.18 76.4845C387.909 72.0289 390.711 68.1761 394.586 64.9261C398.461 61.6761 401.394 58.7144 403.384 56.041C405.427 53.3152 406.448 50.3273 406.448 47.0773C406.448 39.162 403.044 35.2043 396.236 35.2043C393.093 35.2043 390.553 36.3575 388.616 38.664C386.678 40.9704 385.657 44.0894 385.552 48.0208H359C359.105 37.537 362.404 29.3857 368.898 23.5672C375.392 17.6962 384.505 14.7607 396.236 14.7607C407.914 14.7607 416.948 17.4603 423.338 22.8595C429.779 28.2587 433 35.9382 433 45.8978C433 50.2486 432.136 54.2063 430.408 57.7708C428.679 61.3353 425.904 64.9785 422.081 68.7003L413.047 77.1136C410.481 79.5773 408.7 82.1196 407.705 84.7406C406.71 87.3091 406.16 90.5853 406.055 94.5692H383.588ZM380.367 118.472C380.367 114.593 381.755 111.422 384.531 108.958C387.359 106.442 390.868 105.184 395.057 105.184C399.247 105.184 402.73 106.442 405.505 108.958C408.333 111.422 409.747 114.593 409.747 118.472C409.747 122.351 408.333 125.549 405.505 128.065C402.73 130.529 399.247 131.761 395.057 131.761C390.868 131.761 387.359 130.529 384.531 128.065C381.755 125.549 380.367 122.351 380.367 118.472Z" fill="#ACC9B8"/>
<path opacity="0.4" d="M606.269 260.245C606.269 253.965 606.981 249.019 608.406 245.406C609.83 241.75 612.14 238.589 615.334 235.922C618.529 233.255 620.947 230.825 622.587 228.632C624.271 226.395 625.113 223.944 625.113 221.277C625.113 214.782 622.306 211.535 616.694 211.535C614.104 211.535 612.01 212.481 610.413 214.374C608.816 216.266 607.974 218.825 607.887 222.051H586C586.086 213.449 588.806 206.761 594.159 201.987C599.512 197.169 607.024 194.761 616.694 194.761C626.321 194.761 633.768 196.976 639.035 201.406C644.345 205.836 647 212.137 647 220.309C647 223.879 646.288 227.126 644.863 230.051C643.438 232.976 641.15 235.965 637.999 239.019L630.552 245.922C628.437 247.944 626.969 250.03 626.149 252.18C625.328 254.288 624.875 256.976 624.789 260.245H606.269ZM603.614 279.858C603.614 276.675 604.758 274.073 607.046 272.051C609.377 269.987 612.269 268.954 615.723 268.954C619.177 268.954 622.047 269.987 624.335 272.051C626.667 274.073 627.832 276.675 627.832 279.858C627.832 283.04 626.667 285.664 624.335 287.728C622.047 289.75 619.177 290.761 615.723 290.761C612.269 290.761 609.377 289.75 607.046 287.728C604.758 285.664 603.614 283.04 603.614 279.858Z" fill="#ACC9B8"/>
<path opacity="0.4" d="M114.759 240.419C119.484 236.283 123.675 233.561 127.332 232.254C131.021 230.918 134.921 230.573 139.032 231.221C143.143 231.868 146.563 232.087 149.295 231.876C152.086 231.67 154.486 230.689 156.492 228.932C161.379 224.654 161.974 220.404 158.278 216.181C156.572 214.232 154.48 213.28 152.004 213.325C149.528 213.369 147.048 214.421 144.564 216.481L130.148 200.012C136.677 194.411 143.501 192.052 150.619 192.936C157.77 193.791 164.53 197.857 170.899 205.133C177.24 212.377 180.478 219.439 180.614 226.32C180.778 233.233 177.786 239.381 171.637 244.764C168.95 247.115 166.038 248.718 162.899 249.572C159.76 250.427 156.003 250.674 151.63 250.314L141.531 249.258C138.616 248.997 136.08 249.267 133.921 250.066C131.795 250.837 129.474 252.267 126.958 254.355L114.759 240.419ZM98.2529 251.34C100.648 249.243 103.359 248.39 106.387 248.78C109.476 249.175 112.158 250.671 114.433 253.27C116.708 255.869 117.822 258.709 117.775 261.79C117.79 264.876 116.6 267.467 114.205 269.563C111.81 271.659 109.068 272.51 105.979 272.116C102.951 271.726 100.299 270.231 98.0247 267.633C95.75 265.034 94.6054 262.192 94.591 259.106C94.6374 256.025 95.858 253.436 98.2529 251.34Z" fill="#ACC9B8"/>
<path opacity="0.4" d="M259.829 70.9184C257.396 67.0392 255.918 63.709 255.395 60.9279C254.855 58.1201 255.05 55.2767 255.982 52.3976C256.913 49.5186 257.458 47.0852 257.617 45.0976C257.786 43.0668 257.354 41.2278 256.321 39.5804C253.806 35.5684 250.822 34.6443 247.371 36.8082C245.779 37.8069 244.858 39.1988 244.609 40.9837C244.36 42.7687 244.833 44.6741 246.03 46.7002L232.571 55.1393C229.292 49.7921 228.374 44.6118 229.816 39.5985C231.242 34.5587 234.928 30.1745 240.874 26.446C246.793 22.7341 252.23 21.2311 257.185 21.9371C262.166 22.6264 266.239 25.4952 269.405 30.5435C270.788 32.7488 271.608 35.0294 271.865 37.3855C272.122 39.7415 271.873 42.4703 271.118 45.5719L269.213 52.7077C268.695 54.7721 268.6 56.6267 268.929 58.2714C269.241 59.8896 270.004 61.725 271.217 63.7776L259.829 70.9184ZM265.794 84.0579C264.561 82.0918 264.256 80.0432 264.88 77.9122C265.514 75.738 266.893 73.9851 269.016 72.6535C271.14 71.3219 273.305 70.8526 275.511 71.2458C277.728 71.5957 279.453 72.7538 280.686 74.7199C281.918 76.6861 282.218 78.7563 281.584 80.9305C280.96 83.0615 279.587 84.7928 277.463 86.1244C275.339 87.456 273.169 87.9469 270.953 87.5969C268.746 87.2038 267.027 86.0241 265.794 84.0579Z" fill="#ACC9B8"/>
<path opacity="0.4" d="M504.134 240.979C502.132 237.787 500.915 235.046 500.485 232.757C500.04 230.446 500.201 228.106 500.968 225.737C501.734 223.367 502.183 221.364 502.314 219.729C502.453 218.057 502.097 216.544 501.247 215.188C499.176 211.886 496.721 211.125 493.881 212.906C492.57 213.728 491.812 214.874 491.607 216.343C491.402 217.812 491.792 219.38 492.777 221.047L481.7 227.993C479.002 223.592 478.246 219.329 479.433 215.203C480.606 211.055 483.64 207.447 488.533 204.378C493.405 201.323 497.88 200.086 501.958 200.667C506.057 201.234 509.41 203.595 512.015 207.75C513.153 209.565 513.828 211.442 514.039 213.381C514.251 215.32 514.046 217.566 513.425 220.119L511.857 225.992C511.431 227.691 511.353 229.217 511.623 230.571C511.88 231.903 512.508 233.413 513.506 235.102L504.134 240.979ZM509.043 251.794C508.028 250.175 507.778 248.489 508.291 246.735C508.813 244.946 509.947 243.503 511.695 242.407C513.443 241.312 515.225 240.925 517.041 241.249C518.865 241.537 520.284 242.49 521.299 244.108C522.314 245.726 522.56 247.43 522.039 249.22C521.525 250.973 520.395 252.398 518.647 253.494C516.899 254.59 515.113 254.994 513.289 254.706C511.473 254.383 510.058 253.412 509.043 251.794Z" fill="#ACC9B8"/>
<path opacity="0.4" d="M790.432 41.8287C787.274 39.7729 785.019 37.797 783.666 35.901C782.291 33.9909 781.454 31.7998 781.154 29.3275C780.854 26.8552 780.419 24.8494 779.851 23.31C779.275 21.7349 778.316 20.5109 776.975 19.6379C773.708 17.5116 771.161 17.8533 769.332 20.6628C768.488 21.9595 768.281 23.3174 768.713 24.7366C769.144 26.1558 770.157 27.4151 771.751 28.5144L764.619 39.4715C760.32 36.6121 757.843 33.0609 757.186 28.8181C756.508 24.5612 757.744 20.0122 760.896 15.1712C764.033 10.3518 767.574 7.34898 771.518 6.1627C775.476 4.9548 779.51 5.68855 783.621 8.36393C785.416 9.53265 786.817 10.9524 787.824 12.623C788.83 14.2937 789.588 16.4178 790.097 18.9952L791.142 24.9832C791.47 26.704 792.04 28.1217 792.855 29.2364C793.647 30.3369 794.852 31.4439 796.468 32.5573L790.432 41.8287ZM799.431 49.5787C797.831 48.5367 796.895 47.1121 796.624 45.3049C796.345 43.462 796.768 41.6761 797.894 39.9471C799.019 38.2182 800.474 37.119 802.258 36.6494C804.034 36.1442 805.723 36.4126 807.323 37.4546C808.924 38.4966 809.864 39.939 810.143 41.782C810.414 43.5892 809.986 45.3573 808.861 47.0862C807.736 48.8151 806.285 49.9322 804.508 50.4374C802.724 50.907 801.032 50.6207 799.431 49.5787Z" fill="#ACC9B8"/>
<path opacity="0.4" d="M61.9838 150.88C63.0675 147.27 64.3286 144.55 65.7671 142.718C67.2131 140.861 69.08 139.441 71.3678 138.457C73.6556 137.473 75.4581 136.492 76.7752 135.513C78.1243 134.517 79.029 133.252 79.4892 131.72C80.61 127.987 79.5651 125.638 76.3544 124.674C74.8725 124.229 73.5114 124.414 72.271 125.227C71.0306 126.04 70.1073 127.367 69.5012 129.206L56.9795 125.446C58.5134 120.517 61.2235 117.14 65.11 115.315C69.0038 113.466 73.7169 113.372 79.2492 115.033C84.7568 116.687 88.6349 119.239 90.8835 122.69C93.1568 126.149 93.5883 130.226 92.178 134.923C91.5619 136.975 90.594 138.719 89.2742 140.155C87.9545 141.592 86.1296 142.917 83.7997 144.13L78.348 146.819C76.789 147.617 75.5892 148.564 74.7489 149.659C73.9159 150.73 73.1927 152.197 72.5792 154.061L61.9838 150.88ZM57.0802 161.696C57.6295 159.867 58.7331 158.568 60.3909 157.799C62.0809 157.013 63.9137 156.916 65.8896 157.509C67.8654 158.103 69.3296 159.189 70.2823 160.769C71.2672 162.331 71.4849 164.027 70.9357 165.856C70.3864 167.686 69.2668 168.993 67.5768 169.779C65.919 170.548 64.1021 170.636 62.1263 170.043C60.1505 169.45 58.6702 168.372 57.6854 166.809C56.7327 165.23 56.531 163.525 57.0802 161.696Z" fill="#ACC9B8"/>
<path opacity="0.4" d="M349.52 283.181C345.95 277.488 343.781 272.6 343.013 268.518C342.22 264.397 342.507 260.224 343.874 255.999C345.241 251.773 346.041 248.202 346.274 245.285C346.522 242.304 345.888 239.605 344.372 237.187C340.68 231.299 336.301 229.943 331.237 233.119C328.899 234.584 327.547 236.627 327.182 239.247C326.816 241.867 327.511 244.663 329.267 247.637L309.515 260.023C304.702 252.175 303.355 244.572 305.471 237.214C307.564 229.817 312.973 223.383 321.7 217.91C330.388 212.462 338.368 210.257 345.64 211.293C352.95 212.304 358.929 216.515 363.574 223.924C365.604 227.161 366.807 230.508 367.184 233.966C367.562 237.424 367.196 241.429 366.088 245.981L363.292 256.454C362.533 259.483 362.394 262.205 362.876 264.619C363.334 266.994 364.453 269.688 366.234 272.701L349.52 283.181ZM358.274 302.465C356.465 299.58 356.018 296.573 356.934 293.445C357.864 290.254 359.887 287.682 363.004 285.727C366.121 283.773 369.298 283.084 372.537 283.661C375.79 284.175 378.321 285.875 380.131 288.76C381.94 291.646 382.38 294.684 381.45 297.875C380.534 301.003 378.518 303.544 375.401 305.498C372.284 307.453 369.1 308.173 365.846 307.659C362.608 307.082 360.084 305.351 358.274 302.465Z" fill="#ACC9B8"/>
<path opacity="0.4" d="M667.866 145.095C662.234 141.428 658.212 137.905 655.799 134.524C653.348 131.118 651.855 127.21 651.32 122.801C650.785 118.393 650.01 114.816 648.996 112.071C647.969 109.262 646.259 107.079 643.867 105.522C638.043 101.73 633.499 102.34 630.238 107.35C628.733 109.662 628.365 112.084 629.134 114.615C629.903 117.145 631.709 119.391 634.552 121.351L621.833 140.891C614.168 135.792 609.75 129.459 608.579 121.893C607.369 114.302 609.574 106.19 615.194 97.5569C620.788 88.9626 627.102 83.6077 634.136 81.4922C641.195 79.3382 648.389 80.6466 655.719 85.4176C658.92 87.5017 661.419 90.0335 663.214 93.0128C665.009 95.9921 666.361 99.7798 667.268 104.376L669.132 115.054C669.716 118.123 670.734 120.651 672.186 122.639C673.599 124.602 675.747 126.576 678.628 128.561L667.866 145.095ZM683.914 158.915C681.059 157.057 679.39 154.516 678.907 151.294C678.41 148.007 679.165 144.822 681.172 141.739C683.179 138.656 685.773 136.696 688.954 135.858C692.122 134.958 695.133 135.436 697.987 137.294C700.842 139.152 702.518 141.725 703.015 145.011C703.498 148.234 702.736 151.387 700.729 154.47C698.722 157.553 696.135 159.545 692.967 160.446C689.786 161.284 686.768 160.773 683.914 158.915Z" fill="#ACC9B8"/>
<path opacity="0.4" d="M509.28 68.415C510.644 65.9953 511.991 64.2434 513.323 63.1592C514.663 62.0585 516.236 61.3398 518.04 61.0029C519.845 60.6661 521.3 60.2524 522.406 59.7619C523.537 59.2641 524.393 58.5014 524.972 57.4739C526.383 54.9713 526.012 53.1133 523.859 51.8999C522.866 51.3398 521.857 51.2517 520.833 51.6356C519.81 52.0195 518.931 52.8236 518.197 54.0479L509.802 49.3156C511.704 46.0196 514.2 44.0305 517.29 43.3482C520.389 42.6494 523.794 43.3455 527.503 45.4363C531.195 47.5177 533.57 49.9814 534.628 52.8272C535.702 55.6823 535.352 58.6843 533.577 61.8333C532.801 63.2089 531.823 64.3061 530.641 65.1251C529.459 65.9441 527.933 66.6012 526.061 67.0965L521.705 68.1465C520.454 68.468 519.438 68.9545 518.657 69.6058C517.884 70.2406 517.126 71.1784 516.383 72.4193L509.28 68.415ZM504.001 75.3984C504.693 74.172 505.697 73.4167 507.013 73.1324C508.356 72.8409 509.69 73.0685 511.014 73.8153C512.339 74.562 513.216 75.5805 513.645 76.8707C514.1 78.1537 513.982 79.4084 513.29 80.6348C512.599 81.8612 511.582 82.6202 510.239 82.9117C508.923 83.1959 507.602 82.9647 506.277 82.2179C504.953 81.4712 504.063 80.4564 503.608 79.1734C503.179 77.8832 503.31 76.6249 504.001 75.3984Z" fill="#ACC9B8"/>
<path opacity="0.4" d="M709.436 238.919C710.558 236.928 711.668 235.486 712.763 234.594C713.866 233.688 715.161 233.096 716.646 232.819C718.131 232.542 719.329 232.201 720.239 231.798C721.17 231.388 721.874 230.76 722.351 229.914C723.512 227.855 723.206 226.326 721.435 225.327C720.617 224.866 719.787 224.794 718.944 225.109C718.102 225.425 717.379 226.087 716.775 227.095L709.866 223.2C711.431 220.487 713.485 218.85 716.028 218.289C718.579 217.714 721.381 218.287 724.434 220.007C727.472 221.72 729.427 223.748 730.298 226.09C731.182 228.44 730.894 230.911 729.433 233.502C728.794 234.634 727.989 235.538 727.017 236.212C726.044 236.886 724.787 237.426 723.247 237.834L719.662 238.698C718.633 238.963 717.796 239.363 717.153 239.899C716.517 240.422 715.894 241.193 715.282 242.215L709.436 238.919ZM705.091 244.667C705.66 243.657 706.487 243.036 707.57 242.802C708.675 242.562 709.773 242.749 710.863 243.364C711.953 243.978 712.675 244.816 713.028 245.878C713.403 246.934 713.305 247.967 712.736 248.976C712.167 249.986 711.331 250.61 710.226 250.85C709.142 251.084 708.055 250.894 706.965 250.279C705.875 249.665 705.142 248.829 704.768 247.774C704.415 246.712 704.522 245.676 705.091 244.667Z" fill="#ACC9B8"/>
<path opacity="0.4" d="M198.757 304.001C200.995 303.534 202.81 303.419 204.203 303.656C205.612 303.889 206.909 304.474 208.096 305.409C209.283 306.343 210.328 307.02 211.231 307.439C212.153 307.87 213.089 307.986 214.039 307.788C216.353 307.305 217.303 306.068 216.888 304.077C216.696 303.159 216.204 302.486 215.411 302.06C214.618 301.634 213.644 301.526 212.488 301.735L210.868 293.971C213.94 293.362 216.525 293.83 218.622 295.374C220.735 296.914 222.15 299.4 222.866 302.83C223.578 306.245 223.34 309.051 222.151 311.249C220.965 313.462 218.916 314.872 216.004 315.48C214.732 315.746 213.522 315.734 212.374 315.447C211.226 315.159 209.992 314.569 208.67 313.679L205.659 311.55C204.782 310.95 203.93 310.585 203.103 310.454C202.291 310.319 201.299 310.359 200.128 310.571L198.757 304.001ZM191.571 304.518C192.705 304.281 193.717 304.494 194.607 305.155C195.515 305.828 196.097 306.778 196.353 308.003C196.609 309.228 196.453 310.323 195.887 311.288C195.339 312.265 194.498 312.872 193.364 313.109C192.229 313.346 191.208 313.127 190.3 312.454C189.41 311.793 188.837 310.849 188.582 309.624C188.326 308.399 188.472 307.298 189.02 306.321C189.586 305.356 190.437 304.755 191.571 304.518Z" fill="#ACC9B8"/>
<path opacity="0.4" d="M237.203 133.7C238.398 131.581 239.578 130.046 240.744 129.097C241.918 128.133 243.296 127.503 244.876 127.208C246.457 126.913 247.731 126.551 248.7 126.121C249.691 125.685 250.44 125.017 250.948 124.117C252.183 121.925 251.858 120.298 249.973 119.235C249.103 118.744 248.219 118.667 247.323 119.003C246.426 119.34 245.656 120.044 245.014 121.116L237.661 116.971C239.326 114.084 241.512 112.342 244.219 111.745C246.934 111.133 249.916 111.742 253.164 113.574C256.399 115.397 258.479 117.555 259.405 120.047C260.346 122.548 260.039 125.177 258.485 127.935C257.806 129.14 256.948 130.101 255.913 130.819C254.878 131.536 253.541 132.112 251.901 132.546L248.086 133.465C246.991 133.747 246.101 134.173 245.416 134.743C244.74 135.299 244.076 136.121 243.425 137.208L237.203 133.7ZM232.58 139.817C233.185 138.743 234.065 138.081 235.218 137.832C236.394 137.577 237.562 137.776 238.722 138.43C239.882 139.084 240.651 139.976 241.026 141.107C241.425 142.23 241.321 143.329 240.716 144.403C240.11 145.478 239.22 146.142 238.044 146.398C236.89 146.647 235.734 146.444 234.573 145.79C233.413 145.136 232.634 144.247 232.235 143.123C231.859 141.993 231.974 140.891 232.58 139.817Z" fill="#ACC9B8"/>
<path opacity="0.4" d="M485.512 292.65C486.496 290.906 487.467 289.643 488.427 288.861C489.393 288.068 490.527 287.55 491.828 287.307C493.128 287.064 494.177 286.766 494.974 286.412C495.79 286.053 496.407 285.504 496.824 284.763C497.841 282.959 497.574 281.619 496.022 280.745C495.306 280.341 494.579 280.277 493.841 280.554C493.103 280.831 492.469 281.411 491.941 282.293L485.889 278.882C487.26 276.506 489.059 275.072 491.287 274.58C493.521 274.076 495.975 274.578 498.649 276.085C501.31 277.586 503.023 279.362 503.785 281.413C504.56 283.471 504.307 285.635 503.027 287.905C502.468 288.897 501.763 289.688 500.911 290.278C500.059 290.869 498.959 291.342 497.609 291.7L494.469 292.456C493.568 292.688 492.835 293.039 492.272 293.508C491.715 293.966 491.169 294.642 490.633 295.537L485.512 292.65ZM481.707 297.684C482.206 296.8 482.929 296.255 483.879 296.051C484.846 295.84 485.808 296.005 486.763 296.543C487.717 297.081 488.35 297.815 488.659 298.745C488.987 299.67 488.902 300.575 488.403 301.459C487.905 302.343 487.172 302.89 486.204 303.1C485.255 303.305 484.303 303.138 483.348 302.6C482.393 302.062 481.752 301.33 481.424 300.405C481.114 299.475 481.209 298.568 481.707 297.684Z" fill="#ACC9B8"/>
<path opacity="0.4" d="M795.248 96.5406C795.407 94.5446 795.758 92.9903 796.3 91.8779C796.844 90.7518 797.655 89.8053 798.733 89.0383C799.811 88.2714 800.638 87.56 801.213 86.9042C801.802 86.2358 802.131 85.4777 802.198 84.6301C802.363 82.5658 801.557 81.4627 799.782 81.3211C798.962 81.2557 798.276 81.5036 797.722 82.0648C797.169 82.626 796.838 83.4182 796.729 84.4413L789.804 83.8888C790.049 81.1567 791.079 79.0995 792.894 77.7171C794.71 76.3211 797.148 75.7451 800.207 75.9893C803.253 76.2323 805.553 77.1244 807.107 78.6655C808.675 80.2077 809.355 82.2776 809.148 84.8751C809.057 86.0098 808.749 87.024 808.224 87.9177C807.699 88.8114 806.9 89.7038 805.825 90.5949L803.294 92.6011C802.573 93.1902 802.056 93.8162 801.742 94.4791C801.429 95.1283 801.218 95.9713 801.107 97.0081L795.248 96.5406ZM793.91 102.708C793.991 101.696 794.419 100.898 795.194 100.313C795.984 99.7156 796.925 99.4605 798.018 99.5477C799.111 99.6349 799.993 100.035 800.664 100.749C801.351 101.451 801.654 102.307 801.573 103.319C801.492 104.331 801.057 105.135 800.267 105.733C799.492 106.317 798.558 106.566 797.465 106.479C796.372 106.392 795.483 105.998 794.797 105.296C794.125 104.582 793.83 103.719 793.91 102.708Z" fill="#ACC9B8"/>
<path opacity="0.4" d="M10.8395 126.901C12.7997 126.492 14.3898 126.391 15.6099 126.599C16.8434 126.803 17.9799 127.315 19.0194 128.134C20.0589 128.953 20.9742 129.545 21.7653 129.912C22.5726 130.29 23.3924 130.391 24.2248 130.218C26.252 129.795 27.0837 128.711 26.7199 126.968C26.552 126.163 26.1208 125.574 25.4266 125.201C24.7323 124.828 23.8789 124.733 22.8664 124.916L21.4473 118.116C24.138 117.582 26.402 117.992 28.2393 119.344C30.09 120.694 31.3289 122.871 31.9558 125.875C32.58 128.866 32.3714 131.324 31.33 133.249C30.2915 135.188 28.4968 136.423 25.9459 136.955C24.8316 137.188 23.7718 137.178 22.7665 136.926C21.7612 136.674 20.6798 136.157 19.5222 135.377L16.8846 133.513C16.1165 132.988 15.3702 132.667 14.6457 132.553C13.9347 132.435 13.0662 132.469 12.0403 132.655L10.8395 126.901ZM4.54535 127.354C5.53884 127.146 6.42525 127.332 7.2046 127.912C8.00016 128.501 8.5099 129.333 8.73382 130.406C8.95773 131.479 8.82164 132.438 8.32556 133.284C7.8457 134.14 7.10903 134.671 6.11554 134.878C5.12205 135.086 4.22752 134.895 3.43195 134.305C2.65261 133.725 2.15098 132.899 1.92707 131.826C1.70316 130.753 1.83113 129.789 2.31099 128.933C2.80707 128.087 3.55186 127.561 4.54535 127.354Z" fill="#ACC9B8"/>
<path opacity="0.4" d="M473.394 152.385C471.574 149.232 470.497 146.544 470.161 144.319C469.814 142.073 470.051 139.82 470.875 137.559C471.698 135.299 472.202 133.382 472.386 131.807C472.579 130.199 472.289 128.725 471.516 127.386C469.634 124.126 467.29 123.305 464.486 124.925C463.192 125.672 462.42 126.751 462.17 128.162C461.921 129.573 462.242 131.1 463.133 132.744L452.197 139.059C449.747 134.715 449.167 130.573 450.458 126.632C451.737 122.67 454.792 119.294 459.624 116.504C464.435 113.727 468.798 112.69 472.714 113.395C476.651 114.087 479.804 116.484 482.172 120.586C483.207 122.378 483.792 124.214 483.928 126.093C484.064 127.972 483.787 130.133 483.097 132.575L481.377 138.189C480.906 139.814 480.777 141.285 480.991 142.601C481.191 143.896 481.744 145.376 482.648 147.042L473.394 152.385ZM477.752 162.996C476.829 161.399 476.647 159.762 477.204 158.087C477.771 156.378 478.917 155.026 480.643 154.029C482.368 153.033 484.102 152.723 485.844 153.099C487.594 153.442 488.931 154.412 489.854 156.009C490.776 157.607 490.954 159.261 490.388 160.969C489.83 162.644 488.689 163.98 486.963 164.976C485.237 165.973 483.499 166.3 481.748 165.957C480.006 165.581 478.674 164.594 477.752 162.996Z" fill="#ACC9B8"/>
<path opacity="0.4" d="M679.901 308.027C678.403 305.433 677.517 303.22 677.241 301.389C676.954 299.54 677.15 297.686 677.828 295.826C678.506 293.965 678.92 292.387 679.071 291.092C679.23 289.768 678.992 288.555 678.356 287.453C676.806 284.77 674.878 284.095 672.57 285.427C671.505 286.042 670.869 286.93 670.664 288.091C670.458 289.253 670.723 290.51 671.457 291.863L662.456 297.06C660.439 293.485 659.962 290.076 661.025 286.833C662.077 283.572 664.592 280.793 668.569 278.497C672.528 276.211 676.119 275.358 679.341 275.938C682.582 276.507 685.177 278.48 687.126 281.857C687.977 283.332 688.459 284.842 688.571 286.389C688.683 287.936 688.455 289.714 687.887 291.724L686.471 296.344C686.084 297.682 685.978 298.892 686.153 299.975C686.319 301.041 686.773 302.259 687.518 303.63L679.901 308.027ZM683.488 316.761C682.729 315.446 682.578 314.099 683.037 312.721C683.503 311.314 684.447 310.201 685.867 309.381C687.287 308.561 688.714 308.306 690.148 308.615C691.588 308.897 692.688 309.696 693.448 311.011C694.207 312.326 694.353 313.686 693.887 315.093C693.428 316.471 692.489 317.57 691.069 318.39C689.648 319.21 688.218 319.48 686.777 319.198C685.343 318.888 684.247 318.076 683.488 316.761Z" fill="#ACC9B8"/>
<path opacity="0.4" d="M127.304 327.297C128.27 324.461 129.35 322.336 130.546 320.922C131.749 319.489 133.273 318.415 135.119 317.7C136.965 316.984 138.426 316.257 139.501 315.517C140.601 314.765 141.357 313.787 141.767 312.582C142.765 309.649 142.003 307.753 139.48 306.894C138.316 306.498 137.229 306.605 136.22 307.215C135.211 307.825 134.439 308.852 133.905 310.296L124.066 306.946C125.427 303.074 127.678 300.47 130.819 299.133C133.966 297.777 137.713 297.839 142.06 299.319C146.387 300.792 149.394 302.933 151.081 305.739C152.786 308.553 153.011 311.805 151.754 315.495C151.206 317.108 150.386 318.465 149.296 319.568C148.206 320.671 146.718 321.67 144.831 322.567L140.422 324.545C139.161 325.134 138.18 325.852 137.481 326.697C136.788 327.523 136.171 328.668 135.629 330.131L127.304 327.297ZM123.095 335.748C123.584 334.31 124.499 333.31 125.838 332.747C127.203 332.172 128.662 332.148 130.215 332.677C131.767 333.206 132.899 334.111 133.61 335.394C134.347 336.663 134.471 338.017 133.982 339.454C133.492 340.892 132.565 341.898 131.199 342.474C129.86 343.037 128.414 343.054 126.862 342.525C125.309 341.996 124.164 341.097 123.427 339.828C122.716 338.545 122.605 337.185 123.095 335.748Z" fill="#ACC9B8"/>
</svg>
