<svg width="320" height="292" viewBox="0 0 320 292" fill="none" xmlns="http://www.w3.org/2000/svg">
<path opacity="0.4" d="M66.716 55.252C66.716 49.9536 67.3679 45.7802 68.6718 42.7319C69.9756 39.6472 72.0895 36.9798 75.0132 34.7298C77.937 32.4798 80.1496 30.4294 81.651 28.5786C83.1919 26.6915 83.9624 24.623 83.9624 22.373C83.9624 16.8931 81.3942 14.1532 76.2578 14.1532C73.8872 14.1532 71.9709 14.9516 70.509 16.5484C69.0471 18.1452 68.2767 20.3044 68.1977 23.0262H48.1658C48.2448 15.7681 50.734 10.125 55.6333 6.09677C60.5326 2.03226 67.4074 0 76.2578 0C85.0687 0 91.8843 1.86895 96.7046 5.60686C101.564 9.34476 103.994 14.6613 103.994 21.5565C103.994 24.5685 103.342 27.3085 102.039 29.7762C100.735 32.244 98.6406 34.7661 95.7563 37.3427L88.9407 43.1673C87.0047 44.873 85.6614 46.6331 84.9107 48.4476C84.1599 50.2258 83.7451 52.494 83.6661 55.252H66.716ZM64.2861 71.8004C64.2861 69.1149 65.3331 66.9194 67.4272 65.2137C69.5608 63.4718 72.208 62.6008 75.3688 62.6008C78.5297 62.6008 81.1571 63.4718 83.2512 65.2137C85.3848 66.9194 86.4516 69.1149 86.4516 71.8004C86.4516 74.4859 85.3848 76.6996 83.2512 78.4415C81.1571 80.1472 78.5297 81 75.3688 81C72.208 81 69.5608 80.1472 67.4272 78.4415C65.3331 76.6996 64.2861 74.4859 64.2861 71.8004Z" fill="#ACC9B8"/>
<path opacity="0.4" d="M239.651 258.039C242.189 254.32 244.655 251.656 247.048 250.048C249.459 248.414 252.249 247.403 255.419 247.015C258.589 246.627 261.154 246.09 263.115 245.403C265.121 244.706 266.663 243.568 267.741 241.989C270.366 238.142 269.842 235.173 266.167 233.08C264.471 232.113 262.717 231.893 260.906 232.418C259.095 232.943 257.51 234.145 256.149 236.023L241.817 227.86C245.351 222.798 249.835 219.851 255.27 219.02C260.722 218.164 266.615 219.539 272.947 223.145C279.251 226.736 283.232 230.825 284.89 235.413C286.576 240.017 285.768 244.739 282.465 249.578C281.022 251.693 279.243 253.35 277.128 254.551C275.012 255.752 272.306 256.669 269.008 257.302L261.341 258.613C259.139 259.021 257.335 259.709 255.928 260.677C254.539 261.619 253.156 263.042 251.778 264.946L239.651 258.039ZM229.985 268.664C231.271 266.779 233.072 265.665 235.388 265.321C237.749 264.968 240.06 265.435 242.321 266.723C244.583 268.011 246.045 269.693 246.709 271.769C247.419 273.836 247.13 275.812 245.844 277.697C244.557 279.582 242.733 280.701 240.372 281.054C238.057 281.398 235.769 280.926 233.507 279.638C231.246 278.35 229.76 276.672 229.051 274.606C228.387 272.53 228.698 270.549 229.985 268.664Z" fill="#ACC9B8"/>
<path opacity="0.4" d="M159.42 165.147C157.901 162.934 156.978 161.035 156.651 159.448C156.314 157.847 156.436 156.225 157.017 154.583C157.599 152.941 157.939 151.553 158.039 150.419C158.144 149.261 157.874 148.212 157.229 147.272C155.659 144.984 153.796 144.457 151.641 145.691C150.647 146.26 150.072 147.054 149.916 148.072C149.761 149.091 150.056 150.177 150.803 151.333L142.4 156.147C140.353 153.097 139.779 150.142 140.68 147.282C141.57 144.408 143.871 141.907 147.584 139.78C151.28 137.663 154.675 136.806 157.769 137.209C160.879 137.602 163.422 139.238 165.399 142.118C166.262 143.375 166.774 144.676 166.934 146.02C167.095 147.364 166.939 148.92 166.468 150.69L165.279 154.76C164.955 155.937 164.896 156.995 165.102 157.933C165.296 158.856 165.773 159.903 166.53 161.074L159.42 165.147ZM163.144 172.641C162.374 171.52 162.184 170.352 162.573 169.136C162.969 167.896 163.83 166.896 165.156 166.137C166.482 165.377 167.834 165.109 169.212 165.334C170.596 165.533 171.672 166.194 172.442 167.315C173.212 168.437 173.399 169.617 173.003 170.858C172.614 172.073 171.756 173.061 170.43 173.82C169.104 174.58 167.749 174.86 166.365 174.66C164.987 174.436 163.914 173.763 163.144 172.641Z" fill="#ACC9B8"/>
<path opacity="0.4" d="M128.518 258.99C126.122 257.565 124.41 256.195 123.384 254.881C122.341 253.558 121.706 252.039 121.478 250.326C121.251 248.612 120.921 247.222 120.49 246.155C120.053 245.064 119.325 244.215 118.308 243.61C115.83 242.137 113.897 242.374 112.509 244.321C111.869 245.219 111.712 246.161 112.04 247.144C112.367 248.128 113.135 249 114.345 249.762L108.934 257.356C105.673 255.374 103.793 252.913 103.295 249.973C102.78 247.022 103.718 243.87 106.109 240.515C108.489 237.175 111.175 235.094 114.168 234.271C117.171 233.434 120.231 233.943 123.35 235.797C124.712 236.607 125.775 237.591 126.538 238.749C127.302 239.907 127.877 241.379 128.263 243.165L129.056 247.315C129.304 248.508 129.737 249.49 130.355 250.263C130.957 251.025 131.87 251.793 133.096 252.564L128.518 258.99ZM135.345 264.361C134.13 263.639 133.42 262.651 133.214 261.399C133.003 260.122 133.324 258.884 134.178 257.686C135.032 256.487 136.136 255.726 137.489 255.4C138.837 255.05 140.118 255.236 141.332 255.958C142.546 256.68 143.259 257.68 143.471 258.957C143.676 260.21 143.352 261.435 142.499 262.633C141.645 263.832 140.544 264.606 139.196 264.956C137.843 265.281 136.559 265.083 135.345 264.361Z" fill="#ACC9B8"/>
<path opacity="0.4" d="M42.121 173.394C39.4125 169.449 37.7668 166.061 37.1839 163.232C36.5825 160.377 36.8003 157.484 37.8373 154.556C38.8744 151.627 39.4815 149.152 39.6585 147.131C39.8466 145.065 39.3656 143.194 38.2154 141.519C35.4142 137.438 32.0924 136.498 28.25 138.699C26.4765 139.715 25.4511 141.131 25.1738 142.946C24.8964 144.762 25.4238 146.7 26.756 148.761L11.7706 157.345C8.11953 151.906 7.09694 146.636 8.70285 141.537C10.2902 136.411 14.3943 131.951 21.0151 128.159C27.6063 124.383 33.6603 122.855 39.177 123.573C44.7233 124.274 49.2587 127.192 52.7834 132.327C54.3232 134.57 55.2361 136.89 55.5222 139.286C55.8082 141.683 55.531 144.458 54.6905 147.613L52.5693 154.871C51.9929 156.971 51.8877 158.857 52.2537 160.53C52.6011 162.176 53.4502 164.043 54.8009 166.131L42.121 173.394ZM48.7625 186.759C47.3897 184.759 47.0506 182.676 47.7452 180.508C48.4509 178.297 49.986 176.514 52.3505 175.159C54.7151 173.805 57.1259 173.327 59.5828 173.727C62.0508 174.083 63.9712 175.261 65.344 177.261C66.7167 179.261 67.0503 181.367 66.3447 183.578C65.65 185.746 64.1205 187.507 61.7559 188.861C59.3913 190.216 56.9751 190.715 54.5071 190.359C52.0501 189.959 50.1352 188.759 48.7625 186.759Z" fill="#ACC9B8"/>
<path opacity="0.4" d="M242.282 75.6318C239.054 72.0263 236.958 68.8536 235.992 66.1135C235.005 63.3487 234.825 60.4543 235.453 57.4303C236.081 54.4064 236.345 51.8814 236.244 49.8553C236.147 47.7844 235.414 45.9834 234.044 44.4524C230.706 40.7235 227.282 40.1703 223.771 42.793C222.15 44.0034 221.326 45.5252 221.3 47.3582C221.273 49.1912 222.062 51.0539 223.666 52.9464L209.973 63.1746C205.606 58.1953 203.87 53.0844 204.765 47.8417C205.639 42.5743 209.1 37.6811 215.15 33.1621C221.172 28.6632 226.97 26.455 232.541 26.5373C238.14 26.5994 243.039 28.9765 247.239 33.6685C249.074 35.7181 250.297 37.9154 250.909 40.2604C251.521 42.6054 251.626 45.3909 251.224 48.617L250.113 56.0605C249.828 58.2097 249.982 60.0933 250.574 61.7113C251.144 63.3047 252.242 65.0599 253.868 66.9771L242.282 75.6318ZM250.7 88.1332C249.065 86.3058 248.443 84.2772 248.835 82.0473C249.233 79.7726 250.512 77.8282 252.672 76.2143C254.833 74.6004 257.16 73.8515 259.652 73.9676C262.149 74.0388 264.216 74.9881 265.852 76.8155C267.487 78.643 268.107 80.694 267.709 82.9688C267.317 85.1987 266.04 87.1206 263.879 88.7345C261.719 90.3484 259.39 91.1198 256.893 91.0485C254.4 90.9324 252.336 89.9606 250.7 88.1332Z" fill="#ACC9B8"/>
<path opacity="0.4" d="M173.177 27.5515C174.211 25.8746 175.234 24.6604 176.244 23.9091C177.261 23.1462 178.454 22.6481 179.823 22.4146C181.192 22.1812 182.296 21.8945 183.135 21.5545C183.993 21.2095 184.642 20.681 185.081 19.9688C186.152 18.2344 185.87 16.9467 184.237 16.1058C183.484 15.7177 182.718 15.6566 181.942 15.9227C181.165 16.1887 180.498 16.746 179.942 17.5945L173.573 14.3148C175.016 12.0305 176.909 10.6519 179.254 10.1791C181.605 9.69483 184.188 10.1772 187.002 11.6262C189.803 13.0688 191.605 14.7762 192.407 16.7485C193.222 18.7272 192.957 20.8077 191.61 22.9901C191.022 23.9434 190.279 24.7039 189.383 25.2715C188.486 25.8391 187.328 26.2945 185.907 26.6378L182.603 27.3654C181.654 27.5883 180.883 27.9254 180.29 28.3768C179.704 28.8167 179.129 29.4667 178.566 30.3267L173.177 27.5515ZM169.172 32.3914C169.696 31.5414 170.458 31.0179 171.457 30.8209C172.476 30.6189 173.487 30.7766 174.492 31.2942C175.497 31.8117 176.163 32.5175 176.488 33.4117C176.833 34.3009 176.744 35.1704 176.219 36.0204C175.695 36.8704 174.923 37.3964 173.905 37.5984C172.906 37.7954 171.904 37.6351 170.899 37.1176C169.894 36.6001 169.219 35.8968 168.874 35.0076C168.548 34.1134 168.647 33.2413 169.172 32.3914Z" fill="#ACC9B8"/>
<path opacity="0.4" d="M269.198 163.719C270.05 162.339 270.891 161.34 271.722 160.721C272.559 160.094 273.541 159.684 274.668 159.492C275.795 159.299 276.703 159.063 277.394 158.784C278.1 158.5 278.634 158.065 278.996 157.479C279.877 156.051 279.645 154.991 278.301 154.299C277.681 153.98 277.051 153.93 276.412 154.149C275.773 154.367 275.224 154.826 274.766 155.524L269.524 152.825C270.712 150.945 272.27 149.811 274.2 149.422C276.135 149.023 278.261 149.42 280.576 150.612C282.882 151.8 284.365 153.205 285.025 154.828C285.696 156.457 285.477 158.169 284.369 159.965C283.885 160.75 283.274 161.376 282.536 161.843C281.798 162.31 280.845 162.685 279.676 162.967L276.956 163.566C276.175 163.75 275.541 164.027 275.053 164.399C274.571 164.761 274.097 165.295 273.633 166.003L269.198 163.719ZM265.902 167.703C266.334 167.003 266.961 166.572 267.783 166.41C268.621 166.244 269.454 166.374 270.281 166.8C271.108 167.225 271.656 167.806 271.924 168.542C272.208 169.274 272.134 169.99 271.702 170.689C271.271 171.389 270.636 171.822 269.797 171.988C268.975 172.15 268.151 172.018 267.324 171.592C266.496 171.166 265.941 170.588 265.657 169.856C265.389 169.12 265.471 168.402 265.902 167.703Z" fill="#ACC9B8"/>
<path opacity="0.4" d="M145.293 200.957C146.039 199.748 146.776 198.873 147.504 198.331C148.237 197.782 149.097 197.422 150.084 197.254C151.071 197.086 151.866 196.879 152.471 196.634C153.09 196.385 153.558 196.004 153.875 195.491C154.646 194.241 154.443 193.313 153.266 192.706C152.723 192.427 152.171 192.383 151.611 192.574C151.051 192.766 150.571 193.168 150.17 193.78L145.578 191.415C146.618 189.769 147.983 188.775 149.673 188.434C151.369 188.085 153.23 188.433 155.259 189.477C157.278 190.517 158.577 191.748 159.156 193.17C159.743 194.596 159.552 196.096 158.581 197.669C158.157 198.356 157.621 198.904 156.975 199.314C156.329 199.723 155.494 200.051 154.47 200.299L152.088 200.823C151.404 200.984 150.848 201.227 150.421 201.552C149.998 201.869 149.584 202.338 149.178 202.958L145.293 200.957ZM142.406 204.446C142.784 203.833 143.333 203.456 144.053 203.314C144.787 203.168 145.517 203.282 146.241 203.655C146.966 204.028 147.445 204.537 147.68 205.182C147.929 205.823 147.864 206.449 147.486 207.062C147.108 207.675 146.552 208.054 145.818 208.2C145.097 208.342 144.375 208.226 143.651 207.853C142.926 207.48 142.44 206.973 142.191 206.332C141.956 205.687 142.028 205.059 142.406 204.446Z" fill="#ACC9B8"/>
<path opacity="0.4" d="M308.963 92.55C309.084 91.1667 309.35 90.0896 309.761 89.3186C310.174 88.5382 310.789 87.8822 311.607 87.3507C312.425 86.8191 313.052 86.3261 313.488 85.8716C313.935 85.4083 314.185 84.883 314.236 84.2956C314.361 82.8649 313.75 82.1004 312.403 82.0022C311.781 81.9569 311.26 82.1287 310.84 82.5177C310.421 82.9066 310.169 83.4556 310.086 84.1647L304.833 83.7818C305.019 81.8883 305.801 80.4626 307.177 79.5045C308.555 78.537 310.404 78.1379 312.725 78.3071C315.036 78.4755 316.781 79.0938 317.96 80.1618C319.149 81.2306 319.665 82.6651 319.508 84.4653C319.439 85.2518 319.206 85.9546 318.808 86.574C318.41 87.1934 317.803 87.8118 316.988 88.4294L315.067 89.8198C314.521 90.2281 314.128 90.662 313.89 91.1214C313.652 91.5713 313.492 92.1555 313.408 92.8741L308.963 92.55ZM307.948 96.8241C308.01 96.123 308.334 95.5698 308.922 95.1645C309.522 94.7505 310.236 94.5737 311.065 94.6341C311.894 94.6945 312.563 94.9722 313.072 95.467C313.593 95.9531 313.823 96.5467 313.761 97.2478C313.7 97.949 313.37 98.5066 312.771 98.9206C312.183 99.3258 311.474 99.4983 310.645 99.4378C309.816 99.3774 309.141 99.1041 308.621 98.618C308.111 98.1232 307.887 97.5252 307.948 96.8241Z" fill="#ACC9B8"/>
<path opacity="0.4" d="M136.1 78.7467C134.719 76.5619 133.902 74.6987 133.647 73.1569C133.383 71.6001 133.564 70.0385 134.189 68.472C134.813 66.9055 135.195 65.5767 135.335 64.4855C135.481 63.3708 135.261 62.3495 134.675 61.4218C133.247 59.1622 131.469 58.5935 129.342 59.7156C128.36 60.2335 127.774 60.9813 127.585 61.9591C127.395 62.9368 127.639 63.9955 128.316 65.1351L120.018 69.5112C118.16 66.5011 117.72 63.6305 118.699 60.8992C119.67 58.1529 121.988 55.8131 125.653 53.8797C129.303 51.9549 132.613 51.2366 135.584 51.7248C138.571 52.2045 140.963 53.8658 142.76 56.709C143.545 57.951 143.989 59.2232 144.092 60.5255C144.195 61.8279 143.985 63.3254 143.461 65.0179L142.156 68.9085C141.799 70.0348 141.701 71.054 141.863 71.9662C142.015 72.8634 142.435 73.8893 143.121 75.0438L136.1 78.7467ZM139.406 86.101C138.706 84.9937 138.568 83.8596 138.991 82.6989C139.42 81.5145 140.29 80.5771 141.599 79.8866C142.908 79.1961 144.224 78.9812 145.545 79.242C146.873 79.4792 147.887 80.1515 148.587 81.2588C149.287 82.3661 149.422 83.512 148.992 84.6963C148.569 85.8571 147.703 86.7827 146.394 87.4733C145.085 88.1638 143.766 88.3904 142.438 88.1532C141.116 87.8924 140.106 87.2083 139.406 86.101Z" fill="#ACC9B8"/>
<path opacity="0.4" d="M292.768 211.614C291.632 209.816 290.959 208.283 290.75 207.014C290.532 205.733 290.681 204.447 291.195 203.158C291.709 201.869 292.024 200.775 292.139 199.877C292.259 198.96 292.078 198.119 291.595 197.356C290.42 195.496 288.957 195.028 287.206 195.951C286.398 196.378 285.916 196.993 285.76 197.798C285.604 198.603 285.805 199.474 286.361 200.412L279.533 204.013C278.003 201.536 277.641 199.173 278.447 196.926C279.246 194.665 281.153 192.74 284.17 191.148C287.174 189.564 289.898 188.973 292.343 189.375C294.802 189.77 296.77 191.137 298.249 193.477C298.895 194.499 299.261 195.546 299.345 196.618C299.43 197.69 299.257 198.922 298.827 200.315L297.753 203.517C297.458 204.444 297.378 205.283 297.511 206.034C297.637 206.772 297.982 207.617 298.546 208.567L292.768 211.614ZM295.489 217.667C294.913 216.756 294.799 215.822 295.147 214.867C295.501 213.892 296.217 213.121 297.294 212.553C298.372 211.984 299.454 211.807 300.542 212.022C301.635 212.217 302.469 212.771 303.045 213.682C303.621 214.593 303.732 215.536 303.379 216.511C303.031 217.466 302.318 218.228 301.24 218.796C300.163 219.365 299.077 219.551 297.984 219.356C296.897 219.141 296.065 218.578 295.489 217.667Z" fill="#ACC9B8"/>
</svg>
